<?xml version="1.0" standalone="no"?>
<!DOCTYPE svg PUBLIC "-//W3C//DTD SVG 20010904//EN"
 "http://www.w3.org/TR/2001/REC-SVG-20010904/DTD/svg10.dtd">
<svg version="1.0" xmlns="http://www.w3.org/2000/svg"
 width="900.000000pt" height="899.000000pt" viewBox="0 0 900.000000 899.000000"
 preserveAspectRatio="xMidYMid meet">

<g transform="translate(0.000000,899.000000) scale(0.100000,-0.100000)"
fill="#000000" stroke="none">
<path d="M4235 8983 c-584 -32 -1185 -190 -1720 -453 -1194 -587 -2072 -1678
-2385 -2965 -220 -904 -155 -1862 185 -2720 26 -66 87 -202 136 -303 434 -899
1147 -1620 2049 -2072 844 -423 1809 -564 2760 -404 923 155 1807 624 2464
1305 966 1001 1412 2361 1225 3734 -161 1181 -790 2252 -1749 2977 -849 641
-1897 959 -2965 901z m600 -93 c385 -33 733 -105 1097 -229 756 -258 1455
-745 1974 -1376 471 -574 793 -1268 928 -2005 52 -284 61 -399 61 -785 0 -386
-9 -501 -61 -785 -133 -726 -440 -1397 -905 -1975 -535 -665 -1253 -1163
-2064 -1429 -264 -87 -580 -156 -875 -192 -183 -22 -629 -30 -817 -15 -972 79
-1856 449 -2573 1078 -839 736 -1355 1721 -1486 2833 -21 185 -29 607 -15 800
82 1075 527 2050 1280 2800 764 761 1730 1202 2811 1283 107 8 535 6 645 -3z"/>
<path d="M3693 6613 c4 -696 1 -666 73 -821 82 -178 215 -311 397 -397 121
-58 183 -70 347 -69 137 0 150 2 240 33 133 45 220 100 321 200 90 90 138 162
183 275 54 134 56 167 56 812 l0 594 -810 0 -811 0 4 -627z m1142 -78 c180
-313 330 -576 332 -582 4 -10 -14 -13 -70 -13 l-74 0 -298 516 c-223 388 -295
521 -291 537 7 25 66 121 71 116 1 -2 150 -260 330 -574z m-215 -128 c138
-240 253 -444 257 -453 5 -13 -5 -14 -67 -12 l-73 3 -229 394 -228 394 37 63
c20 35 40 61 44 56 4 -4 121 -204 259 -445z m-201 -141 c99 -175 181 -320 181
-323 0 -2 -34 -3 -76 -1 l-77 3 -153 265 c-85 146 -154 269 -154 274 0 4 16
35 36 68 30 49 39 57 49 46 7 -7 94 -156 194 -332z m-225 -110 c64 -112 116
-207 116 -210 0 -3 -33 -6 -74 -6 l-75 0 -54 93 c-30 50 -68 117 -85 147 l-31
55 37 63 c20 34 39 62 43 62 4 0 59 -92 123 -204z m-210 -138 l46 -78 -106 0
c-84 0 -104 3 -97 13 6 6 29 45 53 85 23 41 46 70 50 65 5 -4 29 -43 54 -85z"/>
<path d="M1800 4275 l0 -656 303 3 c282 3 305 5 355 25 120 49 193 150 229
318 26 115 26 505 0 620 -36 168 -109 269 -229 318 -50 20 -73 22 -355 25
l-303 3 0 -656z m454 435 c78 -13 118 -45 148 -117 21 -55 23 -71 23 -308 0
-264 -5 -302 -48 -365 -38 -58 -76 -73 -199 -78 l-108 -5 0 435 c0 239 3 438
7 441 9 10 109 8 177 -3z"/>
<path d="M2860 4275 l0 -655 355 0 355 0 0 115 0 115 -220 0 -220 0 0 175 0
175 200 0 200 0 0 115 0 115 -200 0 -200 0 0 140 0 140 220 0 220 0 0 110 0
110 -355 0 -355 0 0 -655z"/>
<path d="M4025 4918 c-2 -7 -84 -294 -180 -638 -97 -344 -178 -633 -181 -643
-5 -16 4 -17 133 -15 l138 3 34 143 33 142 192 0 192 0 35 -142 35 -143 142
-3 c110 -2 142 0 142 10 -1 7 -81 301 -179 653 l-178 640 -177 3 c-136 2 -177
0 -181 -10z m239 -503 c32 -132 60 -248 62 -257 5 -17 -6 -18 -131 -18 -105 0
-136 3 -133 13 3 6 33 126 68 265 35 139 67 249 70 245 4 -5 33 -116 64 -248z"/>
<path d="M4830 4275 l0 -655 140 0 140 0 1 313 1 312 153 -312 154 -313 156 0
c85 0 155 3 155 6 0 5 -276 525 -353 666 l-20 36 187 296 c102 163 186 298
186 301 0 3 -64 4 -142 3 l-142 -3 -165 -278 -166 -278 -3 280 -2 281 -140 0
-140 0 0 -655z"/>
<path d="M5860 4275 l0 -655 135 0 135 0 0 655 0 655 -135 0 -135 0 0 -655z"/>
<path d="M6310 4275 l0 -655 120 0 120 0 2 419 3 420 170 -420 170 -419 153 0
152 0 0 655 0 655 -120 0 -120 0 -2 -401 -3 -402 -156 399 -156 399 -167 3
-166 2 0 -655z"/>
<path d="M1813 3280 c-23 -9 -23 -10 -23 -244 0 -278 7 -326 59 -377 45 -45
92 -59 201 -59 130 1 185 27 221 105 17 36 19 69 19 308 0 297 3 287 -67 270
l-38 -9 -5 -263 -5 -263 -28 -24 c-28 -24 -61 -30 -137 -24 -45 3 -66 14 -88
47 -15 23 -18 62 -22 283 l-5 255 -30 2 c-16 1 -40 -2 -52 -7z"/>
<path d="M2497 3283 c-16 -4 -17 -27 -15 -341 l3 -337 50 0 50 0 5 233 5 232
149 -230 c154 -238 161 -245 222 -238 l29 3 0 340 c0 380 5 355 -71 340 l-34
-6 0 -237 0 -237 -111 170 c-204 314 -201 310 -234 312 -16 0 -38 -1 -48 -4z"/>
<path d="M3198 3279 c-17 -9 -18 -36 -18 -338 0 -366 -5 -341 71 -341 l39 0
-2 343 -3 342 -35 2 c-19 2 -43 -2 -52 -8z"/>
<path d="M3433 3279 c-8 -11 17 -96 101 -344 l111 -330 49 0 49 0 110 328 c60
180 106 334 103 342 -7 19 -76 20 -97 3 -9 -7 -49 -127 -89 -266 l-74 -253
-76 256 c-43 141 -80 258 -83 262 -14 13 -93 15 -104 2z"/>
<path d="M5417 3277 c-81 -24 -117 -72 -117 -158 0 -93 39 -141 187 -227 40
-23 79 -52 88 -64 17 -25 20 -71 5 -98 -20 -37 -131 -52 -230 -29 -38 9 -46 8
-57 -7 -7 -10 -13 -30 -13 -46 0 -37 24 -43 180 -43 108 0 130 3 160 21 56 33
80 77 80 149 0 99 -43 153 -190 237 -73 42 -100 72 -100 112 0 29 5 38 28 50
42 21 101 27 167 16 52 -9 62 -8 73 7 18 25 15 61 -8 73 -33 17 -199 22 -253
7z"/>
<path d="M5877 3283 c-16 -4 -17 -27 -15 -341 l3 -337 44 -3 c28 -2 47 1 52
10 14 22 11 652 -3 666 -12 12 -46 14 -81 5z"/>
<path d="M6676 3281 c-4 -6 40 -103 98 -215 l106 -204 0 -125 c0 -139 -1 -137
71 -137 l39 0 0 124 0 124 106 206 c58 114 103 213 100 221 -6 16 -60 20 -91
9 -9 -4 -51 -77 -92 -163 l-75 -156 -74 154 c-41 85 -76 157 -79 159 -11 11
-103 14 -109 3z"/>
<path d="M4102 3268 c-9 -9 -12 -93 -12 -329 0 -280 2 -318 16 -323 9 -3 103
-6 209 -6 211 0 205 -2 205 60 0 16 -7 30 -16 34 -9 3 -78 6 -155 6 l-139 0 0
95 0 94 133 3 132 3 0 45 0 45 -132 3 -133 3 0 89 0 90 150 0 c150 0 150 0
156 24 3 13 4 35 2 47 l-3 24 -200 3 c-148 2 -204 -1 -213 -10z"/>
<path d="M4685 3268 c-3 -7 -4 -159 -3 -338 l3 -325 50 0 50 0 5 125 5 125 55
0 55 0 71 -118 c38 -65 77 -123 85 -128 8 -5 33 -9 57 -9 33 0 42 4 42 17 0 9
-30 68 -66 130 -36 63 -65 115 -63 116 2 1 22 11 43 22 63 32 78 71 74 192 -3
116 -16 144 -84 178 -33 17 -64 20 -206 23 -135 3 -169 1 -173 -10z m330 -113
c21 -20 25 -34 25 -79 0 -108 -25 -126 -172 -126 l-78 0 0 115 0 115 100 0
c94 0 103 -2 125 -25z"/>
<path d="M6094 3245 c-11 -61 -6 -65 101 -65 l95 0 2 -287 3 -288 50 0 50 0 3
287 2 287 93 3 92 3 0 45 0 45 -242 3 -242 2 -7 -35z"/>
</g>
</svg>
